<svg xmlns="http://www.w3.org/2000/svg" version="1.1" xmlns:xlink="http://www.w3.org/1999/xlink" xmlns:svgjs="http://svgjs.dev/svgjs" width="1000" height="1000" viewBox="0 0 1000 1000"><rect width="1000" height="1000" fill="#ffffff"></rect><g transform="matrix(0.7,0,0,0.7,149.57582253635576,392.9969016408156)"><svg viewBox="0 0 396 121" data-background-color="#ebebeb" preserveAspectRatio="xMidYMid meet" height="305" width="1000" xmlns="http://www.w3.org/2000/svg" xmlns:xlink="http://www.w3.org/1999/xlink"><g id="tight-bounds" transform="matrix(1,0,0,1,0.23996325086159231,0.14402428097994857)"><svg viewBox="0 0 395.52 120.71253355760878" height="120.71253355760878" width="395.52"><g><svg viewBox="0 0 395.52 120.71253355760878" height="120.71253355760878" width="395.52"><g><svg viewBox="0 0 395.52 120.71253355760878" height="120.71253355760878" width="395.52"><g><svg viewBox="0 0 395.52 120.71253355760878" height="120.71253355760878" width="395.52"><g><svg viewBox="0 0 395.52 76.62430493175269" height="76.62430493175269" width="395.52"><g transform="matrix(1,0,0,1,0,0)"><svg width="395.52" viewBox="-1.6254199999999999 -30.32269 210.6288991342589 40.805249999999994" height="76.62430493175269" data-palette-color="#1f262a"><path d="M0.798-19.584l-2.278 0.382-0.145-0.868 11.834-1.987c2.748-0.461 5.209-0.019 7.381 1.326 2.173 1.345 3.495 3.425 3.968 6.24 0.472 2.814-0.098 5.212-1.713 7.192-1.614 1.981-3.795 3.203-6.543 3.664v0l-4.902 0.823 1.777 10.582c0.075 0.447 0.339 0.633 0.793 0.557v0l3.255-0.547 0.147 0.878-10.868 1.825-0.147-0.878 2.278-0.383c0.454-0.076 0.643-0.338 0.568-0.784v0l-4.626-27.555c-0.065-0.388-0.325-0.544-0.779-0.467zM10.199-20.666v0l-4.665 0.783 2.64 15.72 4.664-0.783c1.907-0.32 3.277-1.358 4.112-3.114 0.835-1.749 1.076-3.676 0.723-5.779-0.353-2.104-1.21-3.846-2.571-5.227-1.362-1.387-2.996-1.92-4.903-1.6zM47.632 2.625v0l-1.569-13.136-14.258 1.702 1.568 13.137c0.054 0.45 0.309 0.648 0.766 0.593v0l2.294-0.274 0.105 0.884-9.959 1.189-0.105-0.883 2.293-0.274c0.457-0.055 0.658-0.307 0.605-0.757v0l-3.313-27.743c-0.047-0.391-0.298-0.559-0.755-0.504v0l-2.294 0.274-0.104-0.874 9.959-1.189 0.105 0.873-2.294 0.274c-0.457 0.055-0.658 0.31-0.604 0.767v0l1.569 13.137 14.259-1.703-1.569-13.136c-0.055-0.457-0.307-0.658-0.757-0.605v0l-2.303 0.275-0.105-0.874 9.969-1.19 0.105 0.874-2.294 0.274c-0.457 0.055-0.662 0.277-0.615 0.667v0l3.313 27.743c0.054 0.45 0.309 0.648 0.765 0.594v0l2.294-0.274 0.106 0.883-9.97 1.191-0.105-0.884 2.304-0.275c0.45-0.054 0.648-0.306 0.594-0.756zM84.131 0.632l0.056 0.888-10.06 0.632-0.056-0.888 3.184-0.2-4.029-9.256-10.798 0.679-2.838 9.687 3.183-0.2 0.056 0.888-7.405 0.466-0.056-0.889 1.816-0.114c0.459-0.029 0.754-0.275 0.886-0.737v0l8.954-30.03 1.667-0.105 12.643 28.673c0.195 0.442 0.522 0.649 0.981 0.62v0zM72.651-9.528l-5.702-13.098-4.068 13.712zM102.052-28.428l-6.349 0.129 0.573 28.124c0.008 0.393 0.242 0.585 0.701 0.576v0l4.28-0.087 0.018 0.89-13.967 0.284-0.019-0.89 4.28-0.087c0.46-0.009 0.686-0.211 0.677-0.604v0l-0.572-28.124-6.349 0.129c-0.846 0.017-1.296 0.39-1.347 1.118v0l-0.623 5.764-1.13 0.023-0.047-2.31c-0.059-2.886-0.248-4.999-0.569-6.339v0c1.053 0.279 2.872 0.392 5.458 0.339v0l13.187-0.269c2.586-0.053 4.399-0.24 5.44-0.561v0c-0.266 1.352-0.369 3.472-0.311 6.358v0l0.047 2.309-1.129 0.023-0.857-5.733c-0.081-0.725-0.545-1.079-1.392-1.062zM144.567 2.501l-1.568-0.074-17.18-28.285-1.225 25.841c-0.021 0.453 0.198 0.69 0.657 0.711v0l2.307 0.11-0.042 0.889-7.661-0.363 0.042-0.889 2.307 0.109c0.459 0.022 0.7-0.194 0.722-0.646v0l1.323-27.909c0.019-0.393-0.202-0.6-0.662-0.622v0l-2.307-0.11 0.042-0.879 7.222 0.343 14.713 24.133 1.034-21.815c0.022-0.459-0.197-0.7-0.656-0.722v0l-2.308-0.109 0.042-0.879 7.662 0.363-0.042 0.879-2.308-0.11c-0.459-0.022-0.699 0.164-0.717 0.557v0zM167.246-25.641v0c-2.971-0.302-5.495 0.762-7.571 3.192-2.075 2.423-3.343 5.903-3.803 10.439-0.46 4.53 0.095 8.178 1.663 10.944 1.563 2.759 3.724 4.278 6.483 4.558 2.753 0.279 4.748-0.235 5.987-1.544 1.238-1.302 1.996-3.325 2.274-6.071v0l0.198-1.95c0.04-0.391-0.169-0.61-0.627-0.657v0l-3.283-0.333 0.09-0.885 9.989 1.013-0.09 0.886-1.323-0.135c-0.458-0.046-0.706 0.126-0.746 0.518v0l-0.179 1.761c-0.294 2.898-1.581 5.18-3.861 6.845-2.28 1.665-5.048 2.332-8.304 2.002v0c-4.112-0.417-7.338-2.179-9.676-5.284-2.338-3.105-3.255-7.145-2.751-12.12 0.505-4.974 2.199-8.756 5.082-11.345 2.883-2.589 6.413-3.671 10.592-3.247v0c2.116 0.215 4.18 0.967 6.193 2.257v0c0.647 0.427 1.116 0.656 1.408 0.686v0c0.491 0.05 0.787-0.265 0.89-0.945v0l0.135-0.831 0.935 0.095-0.859 8.466-0.886-0.09c-0.037-2.543-0.787-4.489-2.252-5.837-1.457-1.354-3.36-2.15-5.708-2.388zM182.92 2.871c-2.142-3.217-2.832-7.302-2.07-12.257 0.764-4.962 2.651-8.654 5.661-11.078 3.009-2.417 6.58-3.308 10.711-2.672 4.131 0.636 7.269 2.559 9.412 5.769 2.142 3.217 2.832 7.306 2.069 12.267-0.763 4.955-2.649 8.644-5.66 11.068-3.01 2.424-6.581 3.318-10.712 2.682-4.131-0.636-7.268-2.562-9.411-5.779zM189.425-19.014c-2.268 2.335-3.749 5.757-4.443 10.263-0.693 4.5-0.309 8.209 1.151 11.125 1.461 2.909 3.585 4.579 6.372 5.008 2.787 0.429 5.322-0.523 7.603-2.857 2.283-2.34 3.77-5.76 4.463-10.261 0.694-4.507 0.303-8.216-1.171-11.127-1.473-2.918-3.603-4.592-6.39-5.021-2.787-0.429-5.315 0.528-7.585 2.87z" opacity="1" transform="matrix(1,0,0,1,0,0)" fill="#000000" class="undefined-text-0" data-fill-palette-color="primary" id="text-0"></path></svg></g></svg></g><g transform="matrix(1,0,0,1,121.23277645671766,82.76472674593877)"><svg viewBox="0 0 153.05444708656466 37.947806811670006" height="37.947806811670006" width="153.05444708656466"><g transform="matrix(1,0,0,1,0,0)"><svg width="153.05444708656466" viewBox="2.03 -40.6 218.87 54.27" height="37.947806811670006" data-palette-color="#5b676d"><path d="M14.65-24.73L14.65-24.73Q17.7-24.73 20.73-23.54L20.73-23.54 20.73-36.06 16.99-36.82 16.99-38.79 24.68-40.6 24.68-3.91Q24.68-2.81 25.92-2.81 27.15-2.81 29-3.56L29-3.56 29.52-1.27Q26.03 0.56 24.29 0.56L24.29 0.56Q21.78 0.56 21-1.07L21-1.07Q20.73-1.66 20.73-2.47L20.73-2.47Q18.9-0.85 16.82-0.15 14.75 0.56 12.51 0.56 10.28 0.56 8.2-0.29 6.13-1.15 4.74-2.73L4.74-2.73Q2.03-5.83 2.03-11.5L2.03-11.5Q2.03-16.92 5.22-20.61L5.22-20.61Q8.76-24.73 14.65-24.73ZM14.65-2.86L14.65-2.86Q17.11-2.86 20.73-5.18L20.73-5.18 20.73-19.04Q18.63-21.85 14.04-21.85L14.04-21.85Q10.5-21.85 8.3-18.99L8.3-18.99Q6.25-16.28 6.25-12.01L6.25-12.01Q6.25-8.13 8.2-5.64L8.2-5.64Q10.35-2.86 14.65-2.86ZM50.73-5.59L50.73-5.59 52.12-4Q48.24-0.51 44.6 0.37L44.6 0.37Q43.8 0.56 43.02 0.56L43.02 0.56Q37.64 0.56 34.27-2.83L34.27-2.83Q30.93-6.15 30.93-11.5L30.93-11.5Q30.93-16.82 34.08-20.61L34.08-20.61Q37.55-24.73 43.09-24.73L43.09-24.73Q46.92-24.73 49.56-21.97L49.56-21.97Q52.37-19.09 52.37-14.48L52.37-14.48 51.22-13.45 35.3-12.3Q35.35-7.86 38.18-5.2L38.18-5.2Q40.72-2.86 44.09-2.86 47.46-2.86 50.73-5.59ZM35.47-14.6L35.47-14.6 48.02-15.75Q47.85-19.8 44.89-21.31L44.89-21.31Q43.85-21.85 42.21-21.85 40.57-21.85 39.29-21.04 38.01-20.24 37.18-19.09L37.18-19.09Q35.59-16.92 35.47-14.6ZM77.29-21.56L68.23 0 64.84 0 55.68-21.56 53.49-22.12 53.49-24.15 62.98-24.15 62.98-22.12 60.18-21.56 67.45-3.96 74.31-21.68 71.55-22.12 71.55-24.15 79.49-24.15 79.49-22.12 77.29-21.56ZM100.75-5.59L100.75-5.59 102.14-4Q98.26-0.51 94.62 0.37L94.62 0.37Q93.82 0.56 93.03 0.56L93.03 0.56Q87.66 0.56 84.29-2.83L84.29-2.83Q80.95-6.15 80.95-11.5L80.95-11.5Q80.95-16.82 84.1-20.61L84.1-20.61Q87.57-24.73 93.11-24.73L93.11-24.73Q96.94-24.73 99.58-21.97L99.58-21.97Q102.39-19.09 102.39-14.48L102.39-14.48 101.24-13.45 85.32-12.3Q85.37-7.86 88.2-5.2L88.2-5.2Q90.74-2.86 94.11-2.86 97.48-2.86 100.75-5.59ZM85.49-14.6L85.49-14.6 98.04-15.75Q97.87-19.8 94.91-21.31L94.91-21.31Q93.86-21.85 92.23-21.85 90.59-21.85 89.31-21.04 88.03-20.24 87.2-19.09L87.2-19.09Q85.61-16.92 85.49-14.6ZM112.42-40.6L112.42-2.59 115.54-2.03 115.54 0 105.29 0 105.29-2.03 108.46-2.59 108.46-36.21 105.29-36.82 105.29-38.79 112.42-40.6ZM119.23-11.87L119.23-11.87Q119.23-14.67 120.19-17.09 121.15-19.51 122.81-21.19L122.81-21.19Q126.23-24.73 131.24-24.73L131.24-24.73Q137.05-24.73 140.32-21.29L140.32-21.29Q143.42-17.99 143.42-12.67L143.42-12.67Q143.42-6.74 139.9-3.03L139.9-3.03Q136.49 0.56 131.46 0.56L131.46 0.56Q125.72 0.56 122.38-2.98L122.38-2.98Q119.23-6.3 119.23-11.87ZM125.48-19.15Q124.5-17.9 124-16.21 123.5-14.53 123.5-12.56 123.5-10.6 123.95-8.73 124.4-6.86 125.35-5.42L125.35-5.42Q127.45-2.29 131.41-2.29L131.41-2.29Q135.12-2.29 137.17-4.74L137.17-4.74Q139.2-7.13 139.2-11.21L139.2-11.21Q139.2-18.43 135.07-20.92L135.07-20.92Q133.53-21.85 131.43-21.85 129.33-21.85 127.89-21.13 126.45-20.41 125.48-19.15ZM160.04 0.56L160.04 0.56Q156.89 0.56 154.09-0.63L154.09-0.63 154.09 11.08 157.19 11.65 157.19 13.67 146.93 13.67 146.93 11.65 150.11 11.08 150.11-20.53 146.93-21.12 146.93-23.1 154.09-24.73 154.09-21.51Q158.36-24.73 162.53-24.73L162.53-24.73Q167-24.73 169.86-21.44L169.86-21.44Q172.76-18.09 172.76-12.67L172.76-12.67Q172.76-7.28 169.54-3.54L169.54-3.54Q166.03 0.56 160.04 0.56ZM154.09-19.04L154.09-19.04 154.09-5.1Q156.19-2.29 160.75-2.29L160.75-2.29Q164.27-2.29 166.46-5.08L166.46-5.08Q168.52-7.64 168.52-11.25L168.52-11.25Q168.52-15.72 166.66-18.51L166.66-18.51Q164.66-21.56 161.22-21.56 157.77-21.56 154.09-19.04ZM196.59-5.59L196.59-5.59 197.98-4Q194.1-0.51 190.46 0.37L190.46 0.37Q189.66 0.56 188.87 0.56L188.87 0.56Q183.5 0.56 180.13-2.83L180.13-2.83Q176.79-6.15 176.79-11.5L176.79-11.5Q176.79-16.82 179.94-20.61L179.94-20.61Q183.41-24.73 188.95-24.73L188.95-24.73Q192.78-24.73 195.42-21.97L195.42-21.97Q198.22-19.09 198.22-14.48L198.22-14.48 197.08-13.45 181.16-12.3Q181.21-7.86 184.04-5.2L184.04-5.2Q186.58-2.86 189.95-2.86 193.32-2.86 196.59-5.59ZM181.33-14.6L181.33-14.6 193.88-15.75Q193.71-19.8 190.75-21.31L190.75-21.31Q189.7-21.85 188.07-21.85 186.43-21.85 185.15-21.04 183.87-20.24 183.04-19.09L183.04-19.09Q181.45-16.92 181.33-14.6ZM204.23-2.59L204.23-20.36 201.1-20.92 201.1-22.95 208.18-24.73 208.18-18.51Q213.8-24.73 216.63-24.73L216.63-24.73Q218.95-24.73 220.9-22.88L220.9-22.88 219.63-18.92 218.49-18.92Q218.49-20.12 216.65-20.7L216.65-20.7Q216.14-20.85 215.63-20.85L215.63-20.85Q213.04-20.85 208.18-15.65L208.18-15.65 208.18-2.59 213.02-2.03 213.02 0 201.1 0 201.1-2.03 204.23-2.59Z" opacity="1" transform="matrix(1,0,0,1,0,0)" fill="#000000" class="undefined-text-1" data-fill-palette-color="secondary" id="text-1"></path></svg></g></svg></g></svg></g></svg></g><g></g></svg></g><defs></defs></svg><rect width="395.52" height="120.71253355760878" fill="none" stroke="none" visibility="hidden"></rect></g></svg></g></svg>